<svg width="42" height="42" viewBox="0 0 42 42" fill="none" xmlns="http://www.w3.org/2000/svg">
<rect width="42" height="42" rx="21" fill="#3656FF" fill-opacity="0.05"/>
<path d="M13 26.72C13.74 26.72 14.33 26.91 14.75 27.3C15.13 27.65 15.33 28.09 15.33 28.61C15.33 28.99 15.24 29.31 15.06 29.57C14.86 29.85 14.58 30.06 14.21 30.19V30.21C14.58 30.3 14.9 30.51 15.16 30.83C15.44 31.17 15.58 31.57 15.58 32.03C15.58 32.66 15.36 33.17 14.92 33.55C14.46 33.94 13.82 34.14 13 34.14C12.17 34.14 11.53 33.94 11.08 33.55C10.64 33.17 10.42 32.66 10.42 32.03C10.42 31.57 10.56 31.17 10.84 30.83C11.1 30.51 11.41 30.3 11.79 30.21V30.19C11.41 30.06 11.13 29.85 10.94 29.57C10.76 29.31 10.67 28.99 10.67 28.61C10.67 28.09 10.86 27.65 11.25 27.3C11.67 26.91 12.25 26.72 13 26.72ZM13 27.39C12.49 27.39 12.09 27.52 11.81 27.78C11.56 28 11.44 28.29 11.44 28.64C11.44 29 11.55 29.3 11.77 29.52C12.03 29.78 12.44 29.92 13 29.92C13.55 29.92 13.96 29.78 14.23 29.52C14.45 29.3 14.56 29 14.56 28.64C14.56 28.29 14.43 28 14.19 27.78C13.9 27.52 13.5 27.39 13 27.39ZM13 30.56C12.42 30.56 11.98 30.7 11.67 30.99C11.37 31.25 11.23 31.6 11.23 32.03C11.23 32.45 11.37 32.8 11.67 33.06C11.97 33.33 12.42 33.47 13 33.47C13.58 33.47 14.02 33.33 14.34 33.05C14.62 32.79 14.77 32.45 14.77 32.03C14.77 31.6 14.62 31.25 14.34 30.99C14.02 30.7 13.57 30.56 13 30.56ZM18.9961 26.72C19.7361 26.72 20.3261 26.91 20.7461 27.3C21.1261 27.65 21.3261 28.09 21.3261 28.61C21.3261 28.99 21.2361 29.31 21.0561 29.57C20.8561 29.85 20.5761 30.06 20.2061 30.19V30.21C20.5761 30.3 20.8961 30.51 21.1561 30.83C21.4361 31.17 21.5761 31.57 21.5761 32.03C21.5761 32.66 21.3561 33.17 20.9161 33.55C20.4561 33.94 19.8161 34.14 18.9961 34.14C18.1661 34.14 17.5261 33.94 17.0761 33.55C16.6361 33.17 16.4161 32.66 16.4161 32.03C16.4161 31.57 16.5561 31.17 16.8361 30.83C17.0961 30.51 17.4061 30.3 17.7861 30.21V30.19C17.4061 30.06 17.1261 29.85 16.9361 29.57C16.7561 29.31 16.6661 28.99 16.6661 28.61C16.6661 28.09 16.8561 27.65 17.2461 27.3C17.6661 26.91 18.2461 26.72 18.9961 26.72ZM18.9961 27.39C18.4861 27.39 18.0861 27.52 17.8061 27.78C17.5561 28 17.4361 28.29 17.4361 28.64C17.4361 29 17.5461 29.3 17.7661 29.52C18.0261 29.78 18.4361 29.92 18.9961 29.92C19.5461 29.92 19.9561 29.78 20.2261 29.52C20.4461 29.3 20.5561 29 20.5561 28.64C20.5561 28.29 20.4261 28 20.1861 27.78C19.8961 27.52 19.4961 27.39 18.9961 27.39ZM18.9961 30.56C18.4161 30.56 17.9761 30.7 17.6661 30.99C17.3661 31.25 17.2261 31.6 17.2261 32.03C17.2261 32.45 17.3661 32.8 17.6661 33.06C17.9661 33.33 18.4161 33.47 18.9961 33.47C19.5761 33.47 20.0161 33.33 20.3361 33.05C20.6161 32.79 20.7661 32.45 20.7661 32.03C20.7661 31.6 20.6161 31.25 20.3361 30.99C20.0161 30.7 19.5661 30.56 18.9961 30.56ZM29.3822 30.09C29.9122 30.09 30.3222 30.28 30.6122 30.68C30.8622 31.02 30.9922 31.48 30.9922 32.05C30.9922 32.61 30.8622 33.07 30.6122 33.42C30.3222 33.8 29.9122 34 29.3822 34C28.8422 34 28.4322 33.8 28.1522 33.42C27.8922 33.06 27.7722 32.61 27.7722 32.05C27.7722 31.48 27.8922 31.02 28.1522 30.68C28.4322 30.28 28.8422 30.09 29.3822 30.09ZM28.5222 26.72H29.1622L25.1622 34.14H24.5122L28.5222 26.72ZM24.3022 26.86C24.8322 26.86 25.2422 27.05 25.5322 27.45C25.7822 27.79 25.9122 28.25 25.9122 28.82C25.9122 29.38 25.7822 29.84 25.5322 30.19C25.2422 30.57 24.8322 30.77 24.3022 30.77C23.7622 30.77 23.3522 30.57 23.0722 30.19C22.8122 29.83 22.6922 29.38 22.6922 28.82C22.6922 28.25 22.8122 27.79 23.0722 27.45C23.3522 27.05 23.7622 26.86 24.3022 26.86ZM29.3822 30.63C29.0722 30.63 28.8522 30.77 28.7122 31.05C28.5822 31.29 28.5222 31.62 28.5222 32.05C28.5222 32.46 28.5822 32.79 28.7122 33.03C28.8522 33.31 29.0722 33.46 29.3822 33.46C29.6822 33.46 29.9022 33.31 30.0522 33.02C30.1722 32.78 30.2422 32.46 30.2422 32.05C30.2422 31.63 30.1722 31.3 30.0522 31.06C29.9022 30.77 29.6822 30.63 29.3822 30.63ZM24.3022 27.4C23.9922 27.4 23.7722 27.54 23.6322 27.82C23.5022 28.06 23.4422 28.39 23.4422 28.82C23.4422 29.23 23.5022 29.56 23.6322 29.8C23.7722 30.08 23.9922 30.23 24.3022 30.23C24.6022 30.23 24.8222 30.08 24.9722 29.79C25.0922 29.55 25.1622 29.23 25.1622 28.82C25.1622 28.4 25.0922 28.07 24.9622 27.83C24.8222 27.54 24.6022 27.4 24.3022 27.4Z" fill="black" fill-opacity="0.8"/>
<path d="M28 12H12C11.4477 12 11 12.4477 11 13V21C11 21.5523 11.4477 22 12 22H28C28.5523 22 29 21.5523 29 21V13C29 12.4477 28.5523 12 28 12Z" stroke="black" stroke-opacity="0.32" stroke-width="1.33333" stroke-linecap="round" stroke-linejoin="round"/>
<path d="M30 15H31C31.5523 15 32 15.4477 32 16V18C32 18.5523 31.5523 19 31 19H30V15Z" fill="black" fill-opacity="0.32"/>
<rect x="12" y="13" width="14" height="8" rx="1" fill="#17B26A"/>
</svg>
