<svg width="42" height="42" viewBox="0 0 42 42" fill="none" xmlns="http://www.w3.org/2000/svg">
<rect width="42" height="42" rx="21" fill="#3656FF" fill-opacity="0.05"/>
<path d="M12.3 26.86H12.94V34H12.12V27.86C11.67 28.32 11.11 28.64 10.44 28.84V28.02C10.76 27.93 11.1 27.79 11.44 27.59C11.78 27.37 12.06 27.13 12.3 26.86ZM17.1137 26.72C17.7737 26.72 18.3137 26.91 18.7437 27.29C19.1637 27.67 19.3837 28.18 19.3837 28.8C19.3837 29.42 19.1437 29.98 18.6837 30.48C18.4337 30.74 17.9437 31.13 17.2037 31.63C16.2937 32.24 15.7737 32.79 15.6437 33.27H19.3937V34H14.6337C14.6337 33.35 14.8637 32.76 15.3437 32.23C15.6237 31.91 16.1337 31.48 16.8937 30.96C17.4537 30.56 17.8237 30.27 18.0137 30.07C18.3737 29.68 18.5637 29.25 18.5637 28.79C18.5637 28.35 18.4337 28.02 18.1737 27.78C17.9137 27.54 17.5437 27.42 17.0837 27.42C16.5937 27.42 16.2137 27.58 15.9537 27.92C15.6737 28.24 15.5237 28.72 15.5137 29.35H14.6937C14.6937 28.55 14.9237 27.91 15.3637 27.44C15.8037 26.96 16.3937 26.72 17.1137 26.72ZM27.3998 30.09C27.9298 30.09 28.3398 30.28 28.6298 30.68C28.8798 31.02 29.0098 31.48 29.0098 32.05C29.0098 32.61 28.8798 33.07 28.6298 33.42C28.3398 33.8 27.9298 34 27.3998 34C26.8598 34 26.4498 33.8 26.1698 33.42C25.9098 33.06 25.7898 32.61 25.7898 32.05C25.7898 31.48 25.9098 31.02 26.1698 30.68C26.4498 30.28 26.8598 30.09 27.3998 30.09ZM26.5398 26.72H27.1798L23.1798 34.14H22.5298L26.5398 26.72ZM22.3198 26.86C22.8498 26.86 23.2598 27.05 23.5498 27.45C23.7998 27.79 23.9298 28.25 23.9298 28.82C23.9298 29.38 23.7998 29.84 23.5498 30.19C23.2598 30.57 22.8498 30.77 22.3198 30.77C21.7798 30.77 21.3698 30.57 21.0898 30.19C20.8298 29.83 20.7098 29.38 20.7098 28.82C20.7098 28.25 20.8298 27.79 21.0898 27.45C21.3698 27.05 21.7798 26.86 22.3198 26.86ZM27.3998 30.63C27.0898 30.63 26.8698 30.77 26.7298 31.05C26.5998 31.29 26.5398 31.62 26.5398 32.05C26.5398 32.46 26.5998 32.79 26.7298 33.03C26.8698 33.31 27.0898 33.46 27.3998 33.46C27.6998 33.46 27.9198 33.31 28.0698 33.02C28.1898 32.78 28.2598 32.46 28.2598 32.05C28.2598 31.63 28.1898 31.3 28.0698 31.06C27.9198 30.77 27.6998 30.63 27.3998 30.63ZM22.3198 27.4C22.0098 27.4 21.7898 27.54 21.6498 27.82C21.5198 28.06 21.4598 28.39 21.4598 28.82C21.4598 29.23 21.5198 29.56 21.6498 29.8C21.7898 30.08 22.0098 30.23 22.3198 30.23C22.6198 30.23 22.8398 30.08 22.9898 29.79C23.1098 29.55 23.1798 29.23 23.1798 28.82C23.1798 28.4 23.1098 28.07 22.9798 27.83C22.8398 27.54 22.6198 27.4 22.3198 27.4Z" fill="black" fill-opacity="0.8"/>
<path d="M28 12H12C11.4477 12 11 12.4477 11 13V21C11 21.5523 11.4477 22 12 22H28C28.5523 22 29 21.5523 29 21V13C29 12.4477 28.5523 12 28 12Z" stroke="black" stroke-opacity="0.32" stroke-width="1.33333" stroke-linecap="round" stroke-linejoin="round"/>
<path d="M30 15H31C31.5523 15 32 15.4477 32 16V18C32 18.5523 31.5523 19 31 19H30V15Z" fill="black" fill-opacity="0.32"/>
<rect x="12" y="13" width="4" height="8" rx="1" fill="#DC143C"/>
</svg>
