<svg width="42" height="42" viewBox="0 0 42 42" fill="none" xmlns="http://www.w3.org/2000/svg">
<rect width="42" height="42" rx="21" fill="#3656FF" fill-opacity="0.05"/>
<path d="M13.07 26.72C13.75 26.72 14.31 26.89 14.73 27.24C15.14 27.59 15.35 28.06 15.35 28.66C15.35 29.46 14.96 30 14.18 30.26C14.6 30.39 14.92 30.59 15.14 30.87C15.38 31.15 15.5 31.5 15.5 31.92C15.5 32.57 15.27 33.1 14.82 33.51C14.36 33.93 13.76 34.14 13.02 34.14C12.34 34.14 11.79 33.96 11.36 33.62C10.85 33.2 10.57 32.59 10.51 31.79H11.34C11.36 32.35 11.55 32.78 11.9 33.07C12.2 33.31 12.57 33.44 13.02 33.44C13.53 33.44 13.94 33.29 14.25 33C14.53 32.72 14.68 32.37 14.68 31.95C14.68 31.52 14.54 31.19 14.26 30.95C13.98 30.71 13.6 30.6 13.1 30.6H12.52V29.96H13.07C13.55 29.96 13.91 29.85 14.16 29.64C14.41 29.42 14.54 29.11 14.54 28.71C14.54 28.31 14.41 28 14.17 27.78C13.91 27.54 13.54 27.43 13.08 27.43C12.6 27.43 12.23 27.55 11.96 27.81C11.68 28.07 11.52 28.44 11.47 28.92H10.66C10.72 28.23 10.98 27.69 11.42 27.3C11.84 26.91 12.39 26.72 13.07 26.72ZM19.0961 26.72C19.7561 26.72 20.2961 26.91 20.7261 27.29C21.1461 27.67 21.3661 28.18 21.3661 28.8C21.3661 29.42 21.1261 29.98 20.6661 30.48C20.4161 30.74 19.9261 31.13 19.1861 31.63C18.2761 32.24 17.7561 32.79 17.6261 33.27H21.3761V34H16.6161C16.6161 33.35 16.8461 32.76 17.3261 32.23C17.6061 31.91 18.1161 31.48 18.8761 30.96C19.4361 30.56 19.8061 30.27 19.9961 30.07C20.3561 29.68 20.5461 29.25 20.5461 28.79C20.5461 28.35 20.4161 28.02 20.1561 27.78C19.8961 27.54 19.5261 27.42 19.0661 27.42C18.5761 27.42 18.1961 27.58 17.9361 27.92C17.6561 28.24 17.5061 28.72 17.4961 29.35H16.6761C16.6761 28.55 16.9061 27.91 17.3461 27.44C17.7861 26.96 18.3761 26.72 19.0961 26.72ZM29.3822 30.09C29.9122 30.09 30.3222 30.28 30.6122 30.68C30.8622 31.02 30.9922 31.48 30.9922 32.05C30.9922 32.61 30.8622 33.07 30.6122 33.42C30.3222 33.8 29.9122 34 29.3822 34C28.8422 34 28.4322 33.8 28.1522 33.42C27.8922 33.06 27.7722 32.61 27.7722 32.05C27.7722 31.48 27.8922 31.02 28.1522 30.68C28.4322 30.28 28.8422 30.09 29.3822 30.09ZM28.5222 26.72H29.1622L25.1622 34.14H24.5122L28.5222 26.72ZM24.3022 26.86C24.8322 26.86 25.2422 27.05 25.5322 27.45C25.7822 27.79 25.9122 28.25 25.9122 28.82C25.9122 29.38 25.7822 29.84 25.5322 30.19C25.2422 30.57 24.8322 30.77 24.3022 30.77C23.7622 30.77 23.3522 30.57 23.0722 30.19C22.8122 29.83 22.6922 29.38 22.6922 28.82C22.6922 28.25 22.8122 27.79 23.0722 27.45C23.3522 27.05 23.7622 26.86 24.3022 26.86ZM29.3822 30.63C29.0722 30.63 28.8522 30.77 28.7122 31.05C28.5822 31.29 28.5222 31.62 28.5222 32.05C28.5222 32.46 28.5822 32.79 28.7122 33.03C28.8522 33.31 29.0722 33.46 29.3822 33.46C29.6822 33.46 29.9022 33.31 30.0522 33.02C30.1722 32.78 30.2422 32.46 30.2422 32.05C30.2422 31.63 30.1722 31.3 30.0522 31.06C29.9022 30.77 29.6822 30.63 29.3822 30.63ZM24.3022 27.4C23.9922 27.4 23.7722 27.54 23.6322 27.82C23.5022 28.06 23.4422 28.39 23.4422 28.82C23.4422 29.23 23.5022 29.56 23.6322 29.8C23.7722 30.08 23.9922 30.23 24.3022 30.23C24.6022 30.23 24.8222 30.08 24.9722 29.79C25.0922 29.55 25.1622 29.23 25.1622 28.82C25.1622 28.4 25.0922 28.07 24.9622 27.83C24.8222 27.54 24.6022 27.4 24.3022 27.4Z" fill="black" fill-opacity="0.8"/>
<path d="M28 12H12C11.4477 12 11 12.4477 11 13V21C11 21.5523 11.4477 22 12 22H28C28.5523 22 29 21.5523 29 21V13C29 12.4477 28.5523 12 28 12Z" stroke="black" stroke-opacity="0.32" stroke-width="1.33333" stroke-linecap="round" stroke-linejoin="round"/>
<path d="M30 15H31C31.5523 15 32 15.4477 32 16V18C32 18.5523 31.5523 19 31 19H30V15Z" fill="black" fill-opacity="0.32"/>
<rect x="12" y="13" width="10" height="8" rx="1" fill="#FF8C00"/>
</svg>
